<?xml version="1.0" encoding="utf-8"?>
<!-- Generator: Adobe Illustrator 27.0.0, SVG Export Plug-In . SVG Version: 6.00 Build 0)  -->
<svg version="1.1" id="Layer_1" xmlns="http://www.w3.org/2000/svg" xmlns:xlink="http://www.w3.org/1999/xlink" x="0px" y="0px"
	 viewBox="0 0 200.837 59.137" style="enable-background:new 0 0 200.837 59.137;" xml:space="preserve">
<style type="text/css">
	.st0{fill:none;stroke:#FFFFFF;stroke-width:1.6783;stroke-miterlimit:10;}
	.st1{fill:#FFFFFF;}
</style>
<g>
	<path class="st0" d="M270.6,156.213H-34.388c-6.18,0-11.188-5.008-11.188-11.188V72.771c0-6.176,5.008-11.188,11.188-11.188H270.6
		c6.18,0,11.188,5.011,11.188,11.188v72.255C281.788,151.205,276.779,156.213,270.6,156.213z"/>
	<path class="st1" d="M119.573,113.45c-5.733,0-10.409,4.36-10.409,10.365c0,5.968,4.676,10.369,10.409,10.369
		c5.733,0,10.409-4.401,10.409-10.369C129.982,117.81,125.306,113.45,119.573,113.45 M119.573,130.099
		c-3.142,0-5.851-2.591-5.851-6.284c0-3.729,2.709-6.284,5.851-6.284c3.142,0,5.851,2.554,5.851,6.284
		C125.424,127.507,122.715,130.099,119.573,130.099 M96.869,113.45c-5.733,0-10.406,4.36-10.406,10.365
		c0,5.968,4.672,10.369,10.406,10.369c5.737,0,10.409-4.401,10.409-10.369C107.278,117.81,102.605,113.45,96.869,113.45
		 M96.869,130.099c-3.138,0-5.851-2.591-5.851-6.284c0-3.729,2.712-6.284,5.851-6.284c3.142,0,5.854,2.554,5.854,6.284
		C102.723,127.507,100.011,130.099,96.869,130.099 M69.865,116.632v4.397h10.526c-0.316,2.474-1.141,4.28-2.397,5.535
		c-1.531,1.534-3.927,3.219-8.13,3.219c-6.478,0-11.543-5.22-11.543-11.701c0-6.478,5.065-11.701,11.543-11.701
		c3.494,0,6.049,1.373,7.932,3.142l3.105-3.105c-2.632-2.511-6.126-4.434-11.037-4.434c-8.875,0-16.337,7.224-16.337,16.098
		s7.462,16.102,16.337,16.102c4.79,0,8.405-1.571,11.231-4.515c2.907-2.907,3.81-6.992,3.81-10.291c0-1.02-0.077-1.96-0.235-2.746
		H69.865z M180.308,120.049c-0.863-2.319-3.494-6.599-8.875-6.599c-5.34,0-9.778,4.203-9.778,10.365
		c0,5.814,4.397,10.369,10.288,10.369c4.753,0,7.502-2.903,8.64-4.592l-3.535-2.356c-1.178,1.725-2.789,2.863-5.105,2.863
		c-2.316,0-3.968-1.061-5.025-3.142l13.863-5.733L180.308,120.049z M166.17,123.503c-0.117-4.004,3.102-6.049,5.421-6.049
		c1.806,0,3.34,0.903,3.847,2.202L166.17,123.503z M154.899,133.556h4.555v-30.475h-4.555V133.556z M147.44,115.766h-0.158
		c-1.02-1.215-2.984-2.316-5.458-2.316c-5.186,0-9.936,4.555-9.936,10.406c0,5.814,4.75,10.328,9.936,10.328
		c2.474,0,4.438-1.101,5.458-2.356h0.158v1.494c0,3.968-2.121,6.086-5.538,6.086c-2.789,0-4.515-2.001-5.223-3.689l-3.968,1.648
		c1.141,2.749,4.162,6.126,9.19,6.126c5.34,0,9.859-3.142,9.859-10.802v-18.613h-4.32V115.766z M142.217,130.099
		c-3.142,0-5.773-2.628-5.773-6.243c0-3.652,2.632-6.324,5.773-6.324c3.102,0,5.535,2.672,5.535,6.324
		C147.752,127.47,145.319,130.099,142.217,130.099 M201.647,103.081h-10.899v30.475h4.548v-11.544h6.351
		c5.042,0,9.996-3.652,9.996-9.466C211.643,106.733,206.688,103.081,201.647,103.081 M201.764,117.77h-6.468v-10.446h6.468
		c3.4,0,5.33,2.816,5.33,5.223C207.094,114.906,205.164,117.77,201.764,117.77 M229.876,113.393c-3.293,0-6.707,1.45-8.116,4.666
		l4.038,1.685c0.863-1.685,2.471-2.232,4.156-2.232c2.353,0,4.743,1.41,4.783,3.921v0.312c-0.822-0.47-2.588-1.178-4.743-1.178
		c-4.354,0-8.784,2.393-8.784,6.864c0,4.075,3.568,6.703,7.569,6.703c3.058,0,4.743-1.373,5.8-2.981h0.158v2.353h4.39v-11.681
		C239.127,116.41,235.089,113.393,229.876,113.393 M229.325,130.095c-1.49,0-3.568-0.745-3.568-2.588
		c0-2.353,2.588-3.256,4.823-3.256c2.001,0,2.94,0.433,4.156,1.02C234.384,128.095,231.954,130.095,229.325,130.095
		 M255.125,114.061l-5.216,13.212h-0.158l-5.411-13.212h-4.897l8.113,18.465l-4.625,10.271h4.743l12.507-28.736H255.125z
		 M214.153,133.556h4.548v-30.475h-4.548V133.556z"/>
	<path class="st1" d="M65.239,80.549c-0.916-0.812-2.121-1.333-3.454-1.333c-2.998,0-5.307,2.477-5.307,5.518
		c0,3.038,2.309,5.491,5.307,5.491c2.578,0,4.454-1.497,4.578-3.87h-4.078V84.67h6.284c0,5.038-2.685,7.408-6.784,7.408
		c-4.078,0-7.244-3.29-7.244-7.344c0-4.082,3.165-7.371,7.244-7.371c1.893,0,3.598,0.732,4.847,1.893L65.239,80.549z"/>
	<polygon class="st1" points="79.707,77.531 79.707,79.34 73.151,79.34 73.151,83.922 78.874,83.922 78.874,85.731 73.151,85.731 
		73.151,90.061 79.915,90.061 79.915,91.87 71.214,91.87 71.214,77.531 	"/>
	<polygon class="st1" points="92.259,77.531 92.259,79.36 87.908,79.36 87.908,91.87 85.951,91.87 85.951,79.36 81.601,79.36 
		81.601,77.531 	"/>
	<rect x="99.608" y="77.53" class="st1" width="1.937" height="14.34"/>
	<polygon class="st1" points="114.74,77.531 114.74,79.36 110.39,79.36 110.39,91.87 108.433,91.87 108.433,79.36 104.083,79.36 
		104.083,77.531 	"/>
	<path class="st1" d="M128.397,77.363c4.098,0,7.284,3.29,7.284,7.371c0,4.055-3.185,7.344-7.284,7.344
		c-4.078,0-7.244-3.29-7.244-7.344C121.153,80.653,124.318,77.363,128.397,77.363 M128.397,90.206c3.018,0,5.33-2.434,5.33-5.471
		c0-3.041-2.313-5.498-5.33-5.498c-2.998,0-5.307,2.457-5.307,5.498C123.09,87.772,125.399,90.206,128.397,90.206"/>
	<polygon class="st1" points="147.131,91.871 140.596,81.069 140.596,91.871 138.659,91.871 138.659,77.532 140.576,77.532 
		147.047,88.249 147.047,77.532 148.984,77.532 148.984,91.871 	"/>
	<path class="st1" d="M-21.137,78.904c-0.671,0.752-1.071,1.88-1.071,3.343v53.867c0,1.232,0.292,2.219,0.782,2.954l29.881-30.23
		L-21.137,78.904z"/>
	<path class="st1" d="M9.52,107.762l9.224-9.331l-34.761-19.754c-1.45-0.822-2.776-0.994-3.83-0.624L9.52,107.762z"/>
	<path class="st1" d="M9.52,109.919l-29.834,30.18c1.114,0.614,2.625,0.537,4.297-0.413l35.194-19.999L9.52,109.919z"/>
	<path class="st1" d="M31.479,105.665L20.11,99.203l-9.526,9.637l9.956,10.073l10.939-6.217
		C34.883,110.764,34.883,107.598,31.479,105.665"/>
</g>
</svg>
