<?xml version="1.0" encoding="utf-8"?>
<!-- Generator: Adobe Illustrator 27.0.0, SVG Export Plug-In . SVG Version: 6.00 Build 0)  -->
<svg version="1.1" id="Layer_1" xmlns="http://www.w3.org/2000/svg" xmlns:xlink="http://www.w3.org/1999/xlink" x="0px" y="0px"
	 viewBox="0 0 200.837 59.137" style="enable-background:new 0 0 200.837 59.137;" xml:space="preserve">
<style type="text/css">
	.st0{fill:none;stroke:#FFFFFF;stroke-width:1.8516;stroke-miterlimit:10;}
	.st1{fill:#FFFFFF;}
</style>
<path class="st0" d="M297.256-11.776H-39.229c-6.818,0-12.343-5.525-12.343-12.343v-79.717c0-6.814,5.525-12.343,12.343-12.343
	h336.485c6.818,0,12.343,5.529,12.343,12.343v79.717C309.599-17.301,304.074-11.776,297.256-11.776z"/>
<path class="st1" d="M68.219-87.072l-1.515,4.988H63.39l5.636-17.594h4.1l5.714,17.594h-3.444l-1.592-4.988H68.219z M73.255-89.497
	L71.87-93.83c-0.337-1.07-0.626-2.27-0.885-3.289H70.93c-0.259,1.018-0.518,2.24-0.833,3.289l-1.359,4.333H73.255z"/>
<path class="st1" d="M83.639-94.796l2.063,6.447c0.367,1.122,0.626,2.141,0.859,3.185h0.078c0.237-1.044,0.522-2.037,0.863-3.185
	l2.033-6.447h3.37l-4.855,12.71h-3.159l-4.722-12.71H83.639z"/>
<path class="st1" d="M105.718-85.14c0,1.148,0.052,2.274,0.207,3.055h-2.896l-0.237-1.411h-0.078
	c-0.755,0.992-2.089,1.696-3.759,1.696c-2.559,0-3.992-1.852-3.992-3.785c0-3.181,2.844-4.829,7.544-4.799v-0.211
	c0-0.833-0.341-2.218-2.585-2.218c-1.252,0-2.559,0.393-3.418,0.941l-0.626-2.089c0.937-0.574,2.585-1.122,4.592-1.122
	c4.074,0,5.248,2.581,5.248,5.377V-85.14z M102.585-88.299c-2.27-0.026-4.437,0.448-4.437,2.378c0,1.252,0.807,1.826,1.826,1.826
	c1.304,0,2.218-0.833,2.533-1.748c0.078-0.233,0.078-0.47,0.078-0.707V-88.299z"/>
<path class="st1" d="M111.847-96.626c-1.07,0-1.774-0.781-1.774-1.718c0-0.992,0.73-1.752,1.8-1.752c1.096,0,1.774,0.759,1.8,1.752
	c0,0.937-0.704,1.718-1.8,1.718H111.847z M110.254-94.797h3.211v12.71h-3.211V-94.797z"/>
<rect x="118.083" y="-100.644" class="st1" width="3.211" height="18.557"/>
<path class="st1" d="M135.803-85.14c0,1.148,0.052,2.274,0.207,3.055h-2.896l-0.237-1.411H132.8
	c-0.755,0.992-2.085,1.696-3.755,1.696c-2.559,0-3.996-1.852-3.996-3.785c0-3.181,2.844-4.829,7.544-4.799v-0.211
	c0-0.833-0.337-2.218-2.585-2.218c-1.252,0-2.559,0.393-3.418,0.941l-0.626-2.089c0.941-0.574,2.585-1.122,4.592-1.122
	c4.074,0,5.248,2.581,5.248,5.377V-85.14z M132.67-88.299c-2.27-0.026-4.437,0.448-4.437,2.378c0,1.252,0.811,1.826,1.826,1.826
	c1.307,0,2.222-0.833,2.533-1.748c0.078-0.233,0.078-0.47,0.078-0.707V-88.299z"/>
<path class="st1" d="M140.341-100.646h3.211v7.599h0.052c0.785-1.226,2.166-2.037,4.074-2.037c3.103,0,5.322,2.581,5.296,6.447
	c0,4.566-2.896,6.84-5.766,6.84c-1.644,0-3.107-0.63-4.022-2.196h-0.052l-0.156,1.907h-2.74c0.052-0.863,0.104-2.27,0.104-3.551
	V-100.646z M143.552-87.332c0,0.259,0.026,0.522,0.078,0.759c0.341,1.304,1.463,2.244,2.844,2.244c2.011,0,3.237-1.592,3.237-4.177
	c0-2.244-1.07-4.07-3.211-4.07c-1.304,0-2.503,0.937-2.844,2.348c-0.052,0.233-0.104,0.522-0.104,0.837V-87.332z"/>
<rect x="156.753" y="-100.644" class="st1" width="3.211" height="18.557"/>
<path class="st1" d="M166.879-87.541c0.078,2.296,1.878,3.292,3.914,3.292c1.489,0,2.533-0.237,3.522-0.578l0.474,2.192
	c-1.1,0.47-2.615,0.811-4.44,0.811c-4.122,0-6.551-2.533-6.551-6.422c0-3.526,2.14-6.84,6.214-6.84c4.122,0,5.481,3.392,5.481,6.185
	c0,0.6-0.056,1.074-0.104,1.359H166.879z M172.464-89.785c0.026-1.174-0.496-3.103-2.637-3.103c-1.985,0-2.818,1.8-2.948,3.103
	H172.464z"/>
<path class="st1" d="M191.331-81.796c-3.577,0-6.37-2.455-6.37-6.551c0-4.177,2.74-6.736,6.577-6.736
	c3.785,0,6.318,2.663,6.318,6.525c0,4.674-3.289,6.762-6.499,6.762H191.331z M191.435-84.122c1.826,0,3.103-1.774,3.103-4.359
	c0-1.985-0.885-4.281-3.077-4.281c-2.27,0-3.185,2.218-3.185,4.333c0,2.455,1.226,4.307,3.133,4.307H191.435z"/>
<path class="st1" d="M201.636-91.011c0-1.463-0.052-2.689-0.104-3.785h2.792l0.156,1.903h0.078c0.578-0.992,1.959-2.192,4.074-2.192
	c2.218,0,4.514,1.437,4.514,5.455v7.544h-3.211v-7.177c0-1.826-0.678-3.211-2.426-3.211c-1.281,0-2.166,0.915-2.507,1.878
	c-0.104,0.263-0.156,0.655-0.156,1.018v7.492h-3.211V-91.011z"/>
<path class="st1" d="M227.939-98.06v3.263h3.052v2.403h-3.052v5.585c0,1.566,0.418,2.352,1.644,2.352
	c0.574,0,0.889-0.03,1.252-0.133l0.052,2.429c-0.47,0.181-1.329,0.337-2.322,0.337c-1.2,0-2.166-0.389-2.766-1.044
	c-0.704-0.73-1.018-1.903-1.018-3.577v-5.947h-1.8v-2.403h1.8v-2.374L227.939-98.06z"/>
<path class="st1" d="M234.566-100.644h3.211v7.57h0.052c0.393-0.6,0.941-1.096,1.592-1.433c0.652-0.37,1.407-0.578,2.218-0.578
	c2.166,0,4.437,1.437,4.437,5.51v7.488h-3.211v-7.151c0-1.826-0.678-3.237-2.455-3.237c-1.252,0-2.137,0.837-2.503,1.8
	c-0.104,0.289-0.13,0.63-0.13,0.967v7.621h-3.211V-100.644z"/>
<path class="st1" d="M252.911-87.541c0.078,2.296,1.878,3.292,3.914,3.292c1.489,0,2.533-0.237,3.522-0.578l0.474,2.192
	c-1.1,0.47-2.615,0.811-4.44,0.811c-4.122,0-6.551-2.533-6.551-6.422c0-3.526,2.141-6.84,6.214-6.84
	c4.122,0,5.481,3.392,5.481,6.185c0,0.6-0.056,1.074-0.104,1.359H252.911z M258.495-89.785c0.026-1.174-0.496-3.103-2.637-3.103
	c-1.985,0-2.818,1.8-2.948,3.103H258.495z"/>
<path class="st1" d="M28.284-65.022c-0.081-8.706,7.129-12.943,7.458-13.139c-4.077-5.959-10.41-6.766-12.632-6.833
	c-5.314-0.555-10.469,3.185-13.173,3.185c-2.759,0-6.936-3.129-11.425-3.037c-5.785,0.093-11.195,3.44-14.158,8.636
	c-6.118,10.595-1.555,26.171,4.307,34.741c2.937,4.196,6.366,8.88,10.851,8.714c4.388-0.185,6.029-2.796,11.328-2.796
	c5.251,0,6.792,2.796,11.369,2.689c4.711-0.078,7.673-4.214,10.503-8.447c3.396-4.807,4.755-9.543,4.811-9.788
	C37.412-51.134,28.372-54.582,28.284-65.022"/>
<path class="st1" d="M19.637-90.627c2.363-2.952,3.981-6.973,3.526-11.047c-3.418,0.148-7.688,2.363-10.147,5.251
	c-2.178,2.548-4.129,6.718-3.622,10.64C13.234-85.498,17.17-87.724,19.637-90.627"/>
<path class="st1" d="M91.73-33.447h-6.114l-3.351-10.532H70.621l-3.192,10.532h-5.955l11.543-35.848h7.121L91.73-33.447z
	 M81.257-48.397l-3.029-9.362c-0.322-0.952-0.922-3.207-1.811-6.751h-0.104c-0.356,1.526-0.926,3.777-1.707,6.751l-2.977,9.362
	H81.257z"/>
<path class="st1" d="M121.409-46.693c0,4.396-1.189,7.869-3.566,10.425c-2.126,2.27-4.77,3.403-7.921,3.403
	c-3.403,0-5.851-1.229-7.34-3.67h-0.104v13.613H96.73v-27.867c0-2.763-0.07-5.596-0.211-8.506h5.051l0.318,4.096H102
	c1.911-3.089,4.822-4.629,8.718-4.629c3.048,0,5.596,1.207,7.632,3.618C120.387-53.796,121.409-50.626,121.409-46.693
	 M115.558-46.482c0-2.518-0.57-4.588-1.704-6.225c-1.241-1.696-2.907-2.552-4.996-2.552c-1.418,0-2.711,0.474-3.855,1.411
	c-1.152,0.944-1.907,2.174-2.259,3.7c-0.181,0.711-0.267,1.292-0.267,1.752v4.311c0,1.881,0.574,3.466,1.722,4.755
	c1.155,1.3,2.655,1.941,4.496,1.941c2.166,0,3.851-0.826,5.051-2.496C114.958-41.553,115.558-43.749,115.558-46.482"/>
<path class="st1" d="M151.132-46.693c0,4.396-1.185,7.869-3.563,10.425c-2.126,2.27-4.766,3.403-7.925,3.403
	c-3.4,0-5.844-1.229-7.333-3.67h-0.107v13.613h-5.744v-27.867c0-2.763-0.074-5.596-0.211-8.506h5.051l0.318,4.096h0.111
	c1.907-3.089,4.814-4.629,8.718-4.629c3.048,0,5.592,1.207,7.632,3.618C150.118-53.796,151.132-50.626,151.132-46.693
	 M145.288-46.482c0-2.518-0.57-4.588-1.707-6.225c-1.241-1.696-2.903-2.552-4.996-2.552c-1.418,0-2.707,0.474-3.855,1.411
	c-1.152,0.944-1.907,2.174-2.255,3.7c-0.185,0.711-0.27,1.292-0.27,1.752v4.311c0,1.881,0.574,3.466,1.726,4.755
	c1.152,1.3,2.648,1.941,4.496,1.941c2.159,0,3.848-0.826,5.051-2.496C144.681-41.553,145.288-43.749,145.288-46.482"/>
<path class="st1" d="M184.375-43.502c0,3.048-1.055,5.529-3.189,7.447c-2.333,2.092-5.585,3.133-9.758,3.133
	c-3.855,0-6.951-0.741-9.295-2.229l1.333-4.785c2.526,1.522,5.288,2.281,8.303,2.281c2.166,0,3.848-0.485,5.059-1.459
	c1.204-0.978,1.803-2.285,1.803-3.918c0-1.452-0.496-2.681-1.485-3.674c-0.992-1-2.648-1.918-4.955-2.77
	c-6.273-2.348-9.406-5.773-9.406-10.284c0-2.948,1.096-5.362,3.296-7.244c2.196-1.881,5.122-2.826,8.777-2.826
	c3.259,0,5.973,0.57,8.132,1.704l-1.433,4.681c-2.022-1.096-4.307-1.648-6.862-1.648c-2.022,0-3.596,0.493-4.733,1.489
	c-0.952,0.885-1.433,1.966-1.433,3.244c0,1.415,0.548,2.589,1.648,3.507c0.952,0.852,2.692,1.774,5.211,2.77
	c3.085,1.241,5.351,2.692,6.807,4.355C183.646-48.057,184.375-45.983,184.375-43.502"/>
<path class="st1" d="M203.36-54.989h-6.329v12.55c0,3.192,1.118,4.785,3.355,4.785c1.022,0,1.874-0.089,2.548-0.263l0.156,4.362
	c-1.126,0.422-2.618,0.633-4.462,0.633c-2.27,0-4.044-0.689-5.318-2.066c-1.274-1.385-1.915-3.711-1.915-6.97v-13.032h-3.777V-59.3
	h3.777v-4.729l5.636-1.707v6.436h6.329V-54.989z"/>
<path class="st1" d="M231.921-46.586c0,3.974-1.133,7.233-3.403,9.784c-2.378,2.626-5.536,3.937-9.466,3.937
	c-3.8,0-6.814-1.259-9.069-3.777c-2.252-2.515-3.377-5.688-3.377-9.514c0-4.011,1.159-7.292,3.485-9.84
	c2.318-2.559,5.448-3.833,9.384-3.833c3.792,0,6.844,1.259,9.147,3.777C230.825-53.603,231.921-50.452,231.921-46.586 M225.963-46.4
	c0-2.381-0.515-4.425-1.544-6.133c-1.2-2.063-2.922-3.096-5.155-3.096c-2.311,0-4.063,1.033-5.266,3.096
	c-1.03,1.707-1.537,3.788-1.537,6.244c0,2.381,0.507,4.425,1.537,6.129c1.241,2.063,2.977,3.092,5.218,3.092
	c2.192,0,3.914-1.048,5.151-3.144C225.43-41.956,225.963-44.019,225.963-46.4"/>
<path class="st1" d="M250.585-54.246c-0.567-0.104-1.17-0.159-1.807-0.159c-2.018,0-3.585,0.767-4.685,2.289
	c-0.952,1.352-1.433,3.052-1.433,5.103v13.561h-5.736l0.048-17.705c0-2.981-0.074-5.692-0.211-8.14h4.999l0.211,4.948h0.156
	c0.604-1.7,1.567-3.066,2.874-4.092c1.274-0.926,2.663-1.389,4.155-1.389c0.526,0,1.007,0.041,1.429,0.104V-54.246z"/>
<path class="st1" d="M276.27-47.595c0,1.03-0.07,1.892-0.207,2.603h-17.228c0.063,2.555,0.9,4.507,2.496,5.855
	c1.448,1.204,3.333,1.8,5.636,1.8c2.548,0,4.874-0.404,6.966-1.218l0.904,3.988c-2.444,1.063-5.333,1.6-8.673,1.6
	c-4,0-7.151-1.181-9.436-3.54c-2.281-2.355-3.429-5.525-3.429-9.495c0-3.896,1.063-7.144,3.196-9.736
	c2.226-2.763,5.244-4.144,9.032-4.144c3.726,0,6.547,1.381,8.466,4.144C275.51-53.536,276.27-50.825,276.27-47.595 M270.792-49.088
	c0.041-1.696-0.333-3.17-1.115-4.414c-0.992-1.592-2.522-2.392-4.577-2.392c-1.874,0-3.4,0.781-4.57,2.34
	c-0.959,1.244-1.526,2.729-1.696,4.466H270.792z"/>
</svg>
