<?xml version="1.0" encoding="utf-8"?>
<!-- Generator: Adobe Illustrator 27.0.0, SVG Export Plug-In . SVG Version: 6.00 Build 0)  -->
<svg version="1.1" id="Layer_1" xmlns="http://www.w3.org/2000/svg" xmlns:xlink="http://www.w3.org/1999/xlink" x="0px" y="0px"
	 viewBox="0 0 91.474 156.92" style="enable-background:new 0 0 91.474 156.92;" xml:space="preserve">
<style type="text/css">
	.st0{clip-path:url(#SVGID_00000153696147846790754650000009442752793583249294_);fill:#CF2481;}
</style>
<g>
	<defs>
		<rect id="SVGID_1_" x="105.851" y="-83.502" width="217.891" height="373.784"/>
	</defs>
	<clipPath id="SVGID_00000101075201804100721090000011744716572818326433_">
		<use xlink:href="#SVGID_1_"  style="overflow:visible;"/>
	</clipPath>
	<path style="clip-path:url(#SVGID_00000101075201804100721090000011744716572818326433_);fill:#CF2481;" d="M290.434-6.71
		c18.396,0,33.308,14.911,33.308,33.308s-14.911,33.308-33.308,33.308c-18.396,0-33.308-14.911-33.308-33.308
		S272.038-6.71,290.434-6.71"/>
	<path style="clip-path:url(#SVGID_00000101075201804100721090000011744716572818326433_);fill:#CF2481;" d="M290.434-83.501
		c18.396,0,33.308,14.911,33.308,33.308c0,18.396-14.911,33.308-33.308,33.308c-18.396,0-33.308-14.911-33.308-33.308
		C257.127-68.59,272.038-83.501,290.434-83.501"/>
	<path style="clip-path:url(#SVGID_00000101075201804100721090000011744716572818326433_);fill:#CF2481;" d="M290.434,70.082
		c18.396,0,33.308,14.914,33.308,33.308c0,18.396-14.911,33.308-33.308,33.308c-18.396,0-33.308-14.911-33.308-33.308
		C257.127,84.996,272.038,70.082,290.434,70.082"/>
	<path style="clip-path:url(#SVGID_00000101075201804100721090000011744716572818326433_);fill:#CF2481;" d="M290.434,146.874
		c18.396,0,33.308,14.911,33.308,33.308s-14.911,33.308-33.308,33.308c-18.396,0-33.308-14.911-33.308-33.307
		S272.038,146.874,290.434,146.874"/>
	<path style="clip-path:url(#SVGID_00000101075201804100721090000011744716572818326433_);fill:#CF2481;" d="M214.796-6.71
		c18.396,0,33.308,14.911,33.308,33.308s-14.911,33.308-33.308,33.308c-18.396,0-33.308-14.911-33.308-33.308
		S196.4-6.71,214.796-6.71"/>
	<path style="clip-path:url(#SVGID_00000101075201804100721090000011744716572818326433_);fill:#CF2481;" d="M214.796,70.082
		c18.396,0,33.308,14.914,33.308,33.308c0,18.396-14.911,33.308-33.308,33.308c-18.396,0-33.308-14.911-33.308-33.308
		C181.488,84.996,196.4,70.082,214.796,70.082"/>
	<path style="clip-path:url(#SVGID_00000101075201804100721090000011744716572818326433_);fill:#CF2481;" d="M139.158,70.082
		c18.396,0,33.308,14.914,33.308,33.308c0,18.396-14.911,33.308-33.308,33.308s-33.308-14.911-33.308-33.308
		C105.85,84.996,120.762,70.082,139.158,70.082"/>
	<path style="clip-path:url(#SVGID_00000101075201804100721090000011744716572818326433_);fill:#CF2481;" d="M214.796,146.874
		c18.396,0,33.308,14.911,33.308,33.308s-14.911,33.308-33.308,33.308c-18.396,0-33.308-14.911-33.308-33.307
		S196.4,146.874,214.796,146.874"/>
	<path style="clip-path:url(#SVGID_00000101075201804100721090000011744716572818326433_);fill:#CF2481;" d="M290.434,223.666
		c18.396,0,33.308,14.911,33.308,33.308s-14.911,33.307-33.308,33.308c-18.396,0-33.308-14.911-33.308-33.308
		C257.127,238.577,272.038,223.666,290.434,223.666"/>
</g>
</svg>
