<?xml version="1.0" encoding="utf-8"?>
<!-- Generator: Adobe Illustrator 27.0.0, SVG Export Plug-In . SVG Version: 6.00 Build 0)  -->
<svg version="1.1" id="Layer_1" xmlns="http://www.w3.org/2000/svg" xmlns:xlink="http://www.w3.org/1999/xlink" x="0px" y="0px"
	 viewBox="0 0 147.909 174.239" style="enable-background:new 0 0 147.909 174.239;" xml:space="preserve">
<style type="text/css">
	.st0{fill:#CE2480;}
	.st1{fill:#CF2883;}
	.st2{fill:#FEFEFE;}
</style>
<g>
	<path class="st0" d="M132.43-31.831c-0.06,20.31-16.97,36.9-37.59,36.85c-20.85-0.05-37.33-16.81-37.27-37.89
		c0.06-20.26,17.12-37.02,37.59-36.95C115.92-69.741,132.49-52.861,132.43-31.831z"/>
	<path class="st0" d="M218.78-59.121c-11.87-49.42-55.09-88.59-105.08-95.34c-3.04-0.41-6.16-0.33-9.1-1.34H84.92
		c-0.25,0.56-0.78,0.43-1.24,0.48c-4.37,0.4-8.71,1.05-13.03,1.86c-58.25,10.85-102.15,62.9-103.19,122.3
		c-0.22,12.22,2.35,23.96,5.9,35.53c7.83,25.52,19.26,49.51,31.63,73.06c26.23,49.94,56.65,97.3,88.87,143.54
		c1.24,1.77,1.62,0.88,2.39-0.21c29.65-42.47,57.69-85.96,82.44-131.5c13.35-24.56,25.82-49.55,35.06-76.01
		c3.93-11.25,7.24-22.67,8.38-34.59C223.35-34.121,221.76-46.691,218.78-59.121z M179.75-2.861c-7.62,22.11-17.76,43.07-28.62,63.69
		c-16.77,31.82-35.31,62.59-54.84,92.77c-0.8,1.23-1.2,2.17-2.46,0.22c-24.45-37.96-47.61-76.64-67.23-117.36
		c-6.76-14.02-12.73-28.35-17.55-43.19c-6.65-20.49-4.63-40.34,4.48-59.38c13.81-28.85,36.93-45.8,68.45-51.18
		c5.12-0.87,10.33-1.1,15.53-0.96c41.44,1.73,75.48,29.58,85.08,69.47C186.36-33.141,184.95-17.961,179.75-2.861z"/>
	<path class="st1" d="M-91.167,194.971c0.975-4.921,1.981-9.82,4.115-14.424c5.347-11.531,14.032-20.097,24.231-27.277
		c14.923-10.506,31.639-17.175,48.936-22.557c5.102-1.588,10.216-3.139,15.31-4.754c1.292-0.41,2.021-0.538,2.538,1.186
		c3.205,10.696,6.525,21.359,9.925,31.996c0.592,1.852,0.135,2.36-1.631,2.908c-12.031,3.73-24.219,7.008-35.753,12.204
		c-7.082,3.191-13.927,6.78-20.081,11.573c-2.659,2.071-5.128,4.347-7.153,7.051c-3.732,4.984-3.695,8.474,0.137,13.428
		c2.417,3.125,5.389,5.675,8.593,7.954c11.6,8.25,24.661,13.368,38.138,17.483c19.535,5.966,39.57,9.374,59.886,11.274
		c18.494,1.729,37.016,2.163,55.564,1.359c29.949-1.298,59.481-5.188,87.999-14.902c12.433-4.235,24.445-9.395,34.898-17.598
		c2.335-1.833,4.482-3.87,6.256-6.258c3.7-4.979,3.709-8.557-0.005-13.49c-3.221-4.278-7.409-7.485-11.869-10.343
		c-11.604-7.437-24.394-12.122-37.504-16.046c-5.043-1.509-10.08-3.041-15.15-4.454c-1.527-0.425-1.784-1.037-1.33-2.528
		c3.275-10.759,6.481-21.539,9.65-32.33c0.355-1.208,0.683-1.779,2.101-1.358c17.818,5.296,35.743,10.29,52.287,19.077
		c11.373,6.04,21.932,13.154,30.239,23.177c6.24,7.529,10.492,15.986,11.649,25.827c0.035,0.296,0.234,0.574,0.356,0.86
		c0,3.199,0,6.398,0,9.597c-0.35,4.784-1.24,9.404-3.239,13.84c-3.816,8.467-9.405,15.545-16.366,21.582
		c-13.366,11.592-28.981,19.138-45.459,25.109c-21.816,7.905-44.387,12.499-67.342,15.454c-12.04,1.55-24.114,2.5-36.26,2.464
		c-2.314,0.146-4.648-0.297-6.946,0.248c-8.637,0-17.273,0-25.91,0c-3.705-0.629-7.463-0.349-11.178-0.402
		c-13.136-0.188-26.106-1.921-39.059-3.803c-18.228-2.648-36.13-6.766-53.533-12.845c-16.15-5.642-31.541-12.78-44.924-23.709
		c-9.551-7.8-16.859-17.16-20.737-29.026c-1.008-3.084-0.863-6.272-1.383-9.391C-91.167,200.409-91.167,197.69-91.167,194.971z"/>
	<path class="st2" d="M132.43-31.831c-0.06,20.31-16.97,36.9-37.59,36.85c-20.85-0.05-37.33-16.81-37.27-37.89
		c0.06-20.26,17.12-37.02,37.59-36.95C115.92-69.741,132.49-52.861,132.43-31.831z"/>
	<path class="st0" d="M132.43-31.831c-0.06,20.31-16.97,36.9-37.59,36.85c-20.85-0.05-37.33-16.81-37.27-37.89
		c0.06-20.26,17.12-37.02,37.59-36.95C115.92-69.741,132.49-52.861,132.43-31.831z"/>
</g>
</svg>
