<?xml version="1.0" encoding="utf-8"?>
<!-- Generator: Adobe Illustrator 27.0.0, SVG Export Plug-In . SVG Version: 6.00 Build 0)  -->
<svg version="1.1" id="Layer_1" xmlns="http://www.w3.org/2000/svg" xmlns:xlink="http://www.w3.org/1999/xlink" x="0px" y="0px"
	 viewBox="0 0 485.185 179.441" style="enable-background:new 0 0 485.185 179.441;" xml:space="preserve">
<style type="text/css">
	.st0{clip-path:url(#SVGID_00000129886197700494160630000002539502347966201502_);fill:#CF2A81;}
	.st1{clip-path:url(#SVGID_00000129886197700494160630000002539502347966201502_);fill:#FFFFFF;}
</style>
<g>
	<defs>
		<rect id="SVGID_1_" x="381.32" y="-68.535" width="90.045" height="33.302"/>
	</defs>
	<clipPath id="SVGID_00000097471891061561425490000006583055233753848232_">
		<use xlink:href="#SVGID_1_"  style="overflow:visible;"/>
	</clipPath>
	<path style="clip-path:url(#SVGID_00000097471891061561425490000006583055233753848232_);fill:#CF2A81;" d="M411.526-41.992
		c-0.713-0.713-1.07-1.614-1.07-2.704c0-1.099,0.366-2.01,1.109-2.723c0.743-0.713,1.664-1.07,2.763-1.07
		c1.189,0,2.288,0.485,2.951,1.189l-0.961,1.05c-0.545-0.545-1.208-0.822-1.991-0.822c-0.683,0-1.248,0.228-1.693,0.674
		c-0.446,0.446-0.673,1.01-0.673,1.693c0,0.663,0.218,1.228,0.654,1.683c0.446,0.456,1.01,0.683,1.693,0.683
		c0.753,0,1.495-0.317,1.961-0.782v-1h-2.02v-1.278h3.357v3.011c-0.931,0.971-2.04,1.456-3.337,1.456
		C413.16-40.933,412.249-41.289,411.526-41.992"/>
	<path style="clip-path:url(#SVGID_00000097471891061561425490000006583055233753848232_);fill:#CF2A81;" d="M419.509-45.755
		c0.545-0.555,1.238-0.832,2.08-0.832s1.535,0.277,2.08,0.832c0.545,0.545,0.812,1.218,0.812,2.01c0,0.802-0.267,1.476-0.812,2.02
		c-0.545,0.545-1.238,0.822-2.08,0.822s-1.535-0.277-2.08-0.822c-0.545-0.545-0.812-1.218-0.812-2.02
		C418.696-44.537,418.964-45.211,419.509-45.755 M421.588-42.2c0.426,0,0.772-0.148,1.06-0.446c0.287-0.307,0.436-0.674,0.436-1.099
		c0-0.426-0.149-0.792-0.436-1.089c-0.287-0.297-0.634-0.446-1.06-0.446c-0.426,0-0.782,0.148-1.07,0.446
		c-0.287,0.297-0.426,0.663-0.426,1.089c0,0.426,0.139,0.792,0.426,1.099C420.806-42.349,421.162-42.2,421.588-42.2"/>
	
		<rect x="425.728" y="-48.568" style="clip-path:url(#SVGID_00000097471891061561425490000006583055233753848232_);fill:#CF2A81;" width="1.396" height="7.527"/>
	<path style="clip-path:url(#SVGID_00000097471891061561425490000006583055233753848232_);fill:#CF2A81;" d="M432.68-48.568h1.396
		v7.527h-1.367v-0.663c-0.436,0.525-0.99,0.792-1.674,0.792c-0.763,0-1.406-0.267-1.911-0.802c-0.505-0.545-0.763-1.218-0.763-2.03
		c0-0.802,0.257-1.476,0.763-2.02c0.515-0.545,1.149-0.812,1.911-0.812c0.653,0,1.198,0.257,1.644,0.763V-48.568z M432.334-44.844
		c-0.277-0.307-0.634-0.456-1.08-0.456c-0.446,0-0.802,0.149-1.089,0.456c-0.277,0.297-0.416,0.663-0.416,1.099
		c0,0.446,0.139,0.812,0.416,1.119c0.287,0.297,0.644,0.446,1.089,0.446c0.446,0,0.802-0.148,1.08-0.446
		c0.277-0.307,0.416-0.674,0.416-1.119C432.75-44.181,432.611-44.547,432.334-44.844"/>
	<path style="clip-path:url(#SVGID_00000097471891061561425490000006583055233753848232_);fill:#CF2A81;" d="M440.801-43.25h-4.05
		c0.198,0.763,0.723,1.149,1.575,1.149c0.584,0,1.277-0.228,1.743-0.545l0.555,0.98c-0.683,0.495-1.466,0.743-2.357,0.743
		c-0.951,0-1.674-0.277-2.179-0.822c-0.505-0.545-0.753-1.218-0.753-2c0-0.822,0.257-1.495,0.782-2.03
		c0.525-0.535,1.198-0.802,2.03-0.802c0.782,0,1.436,0.248,1.941,0.733c0.505,0.485,0.763,1.139,0.763,1.981
		C440.851-43.676,440.831-43.468,440.801-43.25 M436.751-44.29h2.743c-0.129-0.703-0.634-1.129-1.347-1.129
		C437.444-45.419,436.919-44.993,436.751-44.29"/>
	<path style="clip-path:url(#SVGID_00000097471891061561425490000006583055233753848232_);fill:#CF2A81;" d="M442.079-41.042v-5.397
		h1.367v0.753c0.287-0.525,0.931-0.901,1.693-0.901c0.584,0,1.089,0.198,1.495,0.584c0.406,0.386,0.614,0.941,0.614,1.664v3.298
		h-1.396v-2.922c0-0.862-0.456-1.337-1.139-1.337c-0.743,0-1.238,0.564-1.238,1.366v2.892H442.079z"/>
	<polygon style="clip-path:url(#SVGID_00000097471891061561425490000006583055233753848232_);fill:#CF2A81;" points="
		449.002,-41.042 449.002,-48.36 450.002,-48.36 450.002,-45.27 453.676,-45.27 453.676,-48.36 454.667,-48.36 454.667,-41.042 
		453.676,-41.042 453.676,-44.319 450.002,-44.319 450.002,-41.042 	"/>
	<path style="clip-path:url(#SVGID_00000097471891061561425490000006583055233753848232_);fill:#CF2A81;" d="M456.994-41.715
		c-0.525-0.545-0.782-1.208-0.782-1.99c0-0.782,0.258-1.436,0.782-1.971c0.525-0.545,1.198-0.812,2.01-0.812
		c0.802,0,1.466,0.267,1.991,0.812c0.525,0.545,0.792,1.198,0.792,1.971c0,0.782-0.267,1.446-0.792,1.99
		c-0.525,0.535-1.188,0.802-1.991,0.802C458.193-40.913,457.519-41.18,456.994-41.715 M460.302-45.042
		c-0.357-0.376-0.792-0.565-1.297-0.565c-0.505,0-0.941,0.188-1.297,0.565c-0.357,0.366-0.535,0.812-0.535,1.337
		c0,0.525,0.178,0.98,0.535,1.357c0.357,0.376,0.792,0.565,1.297,0.565c0.505,0,0.941-0.188,1.297-0.565
		c0.357-0.376,0.535-0.832,0.535-1.357C460.837-44.231,460.658-44.676,460.302-45.042"/>
	<path style="clip-path:url(#SVGID_00000097471891061561425490000006583055233753848232_);fill:#CF2A81;" d="M462.699-42.072
		l0.683-0.525c0.307,0.564,0.832,0.842,1.317,0.842c0.564,0,0.941-0.327,0.941-0.733c0-0.277-0.159-0.505-0.485-0.674
		c-0.109-0.059-0.337-0.158-0.663-0.297c-0.327-0.139-0.545-0.238-0.654-0.297c-0.545-0.297-0.812-0.723-0.812-1.287
		c0-0.426,0.158-0.782,0.475-1.06c0.317-0.287,0.733-0.426,1.258-0.426c0.674,0,1.327,0.287,1.684,0.842l-0.604,0.574
		c-0.287-0.406-0.663-0.614-1.139-0.614c-0.475,0-0.763,0.287-0.763,0.644c0,0.277,0.149,0.485,0.446,0.624l0.584,0.258
		c0.317,0.129,0.555,0.238,0.713,0.327c0.604,0.307,0.901,0.753,0.901,1.337c0,0.456-0.178,0.842-0.535,1.149
		c-0.357,0.307-0.812,0.465-1.377,0.465C463.877-40.923,463.105-41.309,462.699-42.072"/>
	<path style="clip-path:url(#SVGID_00000097471891061561425490000006583055233753848232_);fill:#CF2A81;" d="M471.365-41.359
		c-0.386,0.297-0.852,0.446-1.416,0.446c-1.119,0-1.693-0.723-1.693-1.991v-2.634h-0.941v-0.812h0.951v-1.882h0.931v1.882h1.882
		v0.812h-1.882v2.704c0,0.703,0.287,1.05,0.862,1.05c0.307,0,0.624-0.099,0.951-0.307L471.365-41.359z"/>
	<path style="clip-path:url(#SVGID_00000097471891061561425490000006583055233753848232_);fill:#FFFFFF;" d="M394.025-57.641
		c-4.748,0-8.61,3.862-8.61,8.61c0,4.749,3.862,8.61,8.61,8.61c4.744,0,8.61-3.862,8.61-8.61
		C402.635-53.779,398.769-57.641,394.025-57.641 M394.025-43.207c-3.212,0-5.824-2.612-5.824-5.824c0-3.212,2.612-5.824,5.824-5.824
		c3.207,0,5.824,2.612,5.824,5.824C399.849-45.819,397.232-43.207,394.025-43.207"/>
	<path style="clip-path:url(#SVGID_00000097471891061561425490000006583055233753848232_);fill:#FFFFFF;" d="M402.734-40.321
		c-0.499-0.499-1.293-0.548-1.844-0.108c-1.884,1.507-4.273,2.41-6.865,2.41c-2.596,0-4.982-0.903-6.868-2.41
		c-0.551-0.441-1.346-0.39-1.845,0.109c-0.584,0.585-0.537,1.553,0.109,2.07c2.362,1.889,5.354,3.017,8.604,3.017
		c3.25,0,6.241-1.128,8.603-3.016c0.646-0.517,0.693-1.486,0.108-2.071L402.734-40.321z"/>
	<path style="clip-path:url(#SVGID_00000097471891061561425490000006583055233753848232_);fill:#CF2A81;" d="M406.756-55.244v0.005
		c0,1.242-1.501,1.863-2.379,0.986l-10.339-10.335L383.699-54.25c-0.878,0.878-2.379,0.256-2.379-0.985
		c0-0.37,0.147-0.724,0.408-0.985l12.314-12.314l12.305,12.305C406.609-55.969,406.756-55.614,406.756-55.244"/>
	<polygon style="clip-path:url(#SVGID_00000097471891061561425490000006583055233753848232_);fill:#FFFFFF;" points="
		414.587,-56.699 415.307,-55.976 416.243,-56.915 415.307,-57.853 414.587,-57.13 413.866,-57.853 412.93,-56.915 413.866,-55.976 
			"/>
	<path style="clip-path:url(#SVGID_00000097471891061561425490000006583055233753848232_);fill:#FFFFFF;" d="M428.639-55.13
		c-0.061-0.226-0.134-0.446-0.22-0.658c-0.086-0.212-0.179-0.404-0.28-0.577l-1.205,0.679c0.108,0.18,0.206,0.367,0.296,0.561
		s0.169,0.387,0.237,0.577c0.068,0.191,0.122,0.369,0.161,0.534c0.039,0.166,0.059,0.306,0.059,0.421
		c0,0.065-0.025,0.13-0.075,0.194c-0.05,0.065-0.118,0.122-0.204,0.173c-0.086,0.05-0.185,0.09-0.296,0.119
		c-0.111,0.029-0.224,0.043-0.339,0.043c-0.23,0-0.416-0.048-0.559-0.146c-0.143-0.097-0.215-0.225-0.215-0.383
		c0-0.029,0.003-0.084,0.011-0.167c0.007-0.083,0.018-0.182,0.032-0.297c0.014-0.115,0.029-0.241,0.043-0.377
		c0.014-0.137,0.032-0.273,0.054-0.41l-1.129-0.14c-0.014,0.108-0.031,0.221-0.048,0.34c-0.018,0.119-0.038,0.237-0.059,0.356
		c-0.022,0.119-0.042,0.234-0.059,0.345c-0.018,0.112-0.034,0.207-0.048,0.286c-0.072,0.395-0.355,0.593-0.85,0.593
		c-0.337,0-0.605-0.106-0.809-0.312c0.066-0.276,0.132-0.59,0.195-0.95l-1.076-0.28c-0.101,0.338-0.188,0.606-0.264,0.803
		c-0.075,0.198-0.156,0.347-0.242,0.448c-0.086,0.101-0.183,0.167-0.29,0.2c-0.107,0.032-0.244,0.049-0.409,0.049h-0.86h-0.86
		c-0.402,0-0.694-0.04-0.877-0.119c-0.183-0.079-0.274-0.209-0.274-0.388c0-0.043,0.011-0.171,0.032-0.383
		c0.022-0.212,0.054-0.494,0.097-0.847l-1.129-0.14c-0.029,0.201-0.059,0.415-0.091,0.642c-0.032,0.226-0.066,0.422-0.102,0.588
		c-0.029,0.13-0.099,0.241-0.21,0.334c-0.111,0.094-0.274,0.169-0.489,0.226c-0.215,0.058-0.488,0.099-0.818,0.124
		c-0.33,0.025-0.724,0.038-1.183,0.038c-0.459,0-0.85-0.023-1.172-0.07c-0.323-0.047-0.588-0.12-0.796-0.221
		c-0.208-0.101-0.36-0.228-0.457-0.383c-0.097-0.155-0.145-0.343-0.145-0.566c0-0.165,0.03-0.363,0.091-0.593
		c0.061-0.23,0.142-0.46,0.242-0.69l-0.85-0.41c-0.23,0.352-0.411,0.73-0.543,1.132c-0.133,0.403-0.199,0.78-0.199,1.132
		c0,0.777,0.307,1.345,0.92,1.704c0.613,0.359,1.583,0.539,2.909,0.539c0.86,0,1.558-0.07,2.092-0.21
		c0.534-0.14,0.941-0.361,1.221-0.663c0.179,0.266,0.407,0.462,0.683,0.588c0.276,0.126,0.626,0.189,1.049,0.189h0.86h0.86
		c0.373,0,0.683-0.038,0.93-0.113c0.247-0.075,0.455-0.216,0.624-0.421c0.002-0.002,0.003-0.005,0.005-0.007
		c0.288,0.359,0.743,0.541,1.367,0.541c0.53,0,0.979-0.162,1.344-0.485c0.337,0.323,0.796,0.485,1.377,0.485
		c0.702,0,1.233-0.189,1.592-0.566c0.358-0.377,0.538-0.936,0.538-1.677c0-0.208-0.016-0.426-0.048-0.653
		C428.746-54.677,428.699-54.903,428.639-55.13"/>
	<path style="clip-path:url(#SVGID_00000097471891061561425490000006583055233753848232_);fill:#FFFFFF;" d="M440.867-55.992
		c-0.283-0.356-0.626-0.678-1.027-0.965c-0.402-0.287-0.85-0.525-1.344-0.712l-0.538,1.273c0.387,0.101,0.744,0.25,1.07,0.447
		c0.326,0.198,0.609,0.426,0.85,0.685c0.24,0.259,0.428,0.539,0.565,0.841s0.204,0.604,0.204,0.906c0,0.122-0.115,0.221-0.344,0.297
		c-0.23,0.076-0.52,0.113-0.871,0.113h-0.065c0.165-0.309,0.247-0.651,0.247-1.025c0-0.251-0.043-0.489-0.129-0.712
		c-0.086-0.223-0.204-0.417-0.355-0.582c-0.151-0.165-0.328-0.297-0.532-0.394c-0.205-0.097-0.421-0.146-0.651-0.146
		c-0.23,0-0.445,0.049-0.645,0.146c-0.201,0.097-0.377,0.228-0.527,0.394c-0.151,0.166-0.271,0.36-0.36,0.582
		c-0.09,0.223-0.134,0.46-0.134,0.712c0,0.381,0.079,0.719,0.236,1.014c-0.122,0.007-0.244,0.011-0.366,0.011h-0.398h-0.86h-0.861
		h-0.473c-0.014-0.424-0.066-0.818-0.156-1.181c-0.09-0.363-0.215-0.676-0.376-0.938c-0.161-0.262-0.357-0.469-0.586-0.62
		c-0.23-0.151-0.488-0.227-0.774-0.227c-0.28,0-0.538,0.059-0.774,0.178s-0.439,0.284-0.608,0.496
		c-0.169,0.212-0.3,0.462-0.393,0.749c-0.093,0.288-0.14,0.597-0.14,0.928c0,0.611,0.192,1.091,0.575,1.44
		c0.384,0.349,0.923,0.523,1.619,0.523h0.312c-0.387,0.568-1.233,0.895-2.538,0.981l0.549,1.381c0.753-0.058,1.393-0.275,1.92-0.653
		c0.527-0.377,0.905-0.879,1.135-1.505h0.71h0.861h0.86c0.33,0,0.679-0.038,1.049-0.113c0.369-0.075,0.733-0.182,1.092-0.318
		c0.323,0.151,0.622,0.261,0.898,0.329c0.276,0.068,0.547,0.102,0.812,0.102c0.667,0,1.19-0.18,1.57-0.539
		c0.38-0.359,0.57-0.856,0.57-1.488c0-0.431-0.075-0.852-0.226-1.262C441.368-55.254,441.151-55.637,440.867-55.992 M432.118-53.107
		c-0.409,0-0.733-0.047-0.973-0.14c-0.24-0.093-0.36-0.27-0.36-0.529c0-0.244,0.073-0.444,0.221-0.599
		c0.147-0.155,0.342-0.232,0.586-0.232c0.272,0,0.488,0.13,0.645,0.388c0.158,0.259,0.254,0.629,0.29,1.111H432.118z
		 M437.937-53.312c-0.23-0.086-0.405-0.196-0.527-0.329c-0.122-0.133-0.183-0.286-0.183-0.458c0-0.201,0.066-0.374,0.199-0.518
		c0.133-0.144,0.307-0.216,0.522-0.216c0.215,0,0.389,0.07,0.522,0.21c0.133,0.14,0.199,0.315,0.199,0.523
		C438.668-53.733,438.424-53.47,437.937-53.312"/>
	<path style="clip-path:url(#SVGID_00000097471891061561425490000006583055233753848232_);fill:#FFFFFF;" d="M450.252-53.55
		c-0.065-0.259-0.142-0.512-0.231-0.76c-0.09-0.248-0.185-0.473-0.285-0.674l-1.215,0.669c0.237,0.511,0.428,0.985,0.576,1.424
		c0.147,0.439,0.22,0.762,0.22,0.971c0,0.13-0.048,0.254-0.145,0.372c-0.097,0.119-0.228,0.221-0.393,0.308
		c-0.165,0.086-0.359,0.155-0.581,0.205c-0.222,0.05-0.459,0.076-0.71,0.076c-0.516,0-0.93-0.137-1.242-0.41
		c-0.312-0.273-0.468-0.64-0.468-1.1c0-0.489,0.154-0.999,0.462-1.531l-0.807-0.496c-0.294,0.352-0.522,0.746-0.683,1.181
		c-0.161,0.435-0.242,0.868-0.242,1.3c0,0.41,0.068,0.777,0.204,1.1c0.136,0.324,0.333,0.599,0.591,0.825
		c0.258,0.227,0.57,0.399,0.936,0.518c0.366,0.119,0.782,0.178,1.248,0.178c0.437,0,0.837-0.066,1.199-0.199
		c0.362-0.133,0.676-0.32,0.941-0.561c0.265-0.241,0.472-0.527,0.619-0.858c0.147-0.331,0.22-0.697,0.22-1.1
		c0-0.201-0.02-0.426-0.059-0.674C450.368-53.037,450.316-53.291,450.252-53.55"/>
	<polygon style="clip-path:url(#SVGID_00000097471891061561425490000006583055233753848232_);fill:#FFFFFF;" points="
		448.337,-56.03 447.402,-56.969 446.466,-56.03 447.402,-55.092 	"/>
	<path style="clip-path:url(#SVGID_00000097471891061561425490000006583055233753848232_);fill:#FFFFFF;" d="M458.974-53.539
		c0,0.137-0.093,0.243-0.28,0.318c-0.187,0.076-0.441,0.113-0.763,0.113l0,0v0h-0.86h-0.86c-0.165,0-0.303-0.009-0.414-0.027
		c-0.111-0.018-0.206-0.052-0.285-0.102c-0.079-0.05-0.147-0.122-0.204-0.216c-0.058-0.093-0.115-0.212-0.172-0.356
		c-0.201-0.518-0.384-1.007-0.549-1.467c-0.165-0.46-0.323-0.91-0.473-1.348l-1.269,0.593c0.129,0.345,0.244,0.654,0.344,0.928
		c0.1,0.273,0.195,0.522,0.285,0.744c0.089,0.223,0.176,0.428,0.258,0.615c0.082,0.187,0.163,0.367,0.242,0.539
		c-0.187,0.058-0.407,0.104-0.661,0.14c-0.255,0.036-0.518,0.054-0.791,0.054c-0.237,0-0.495-0.011-0.774-0.032
		c-0.28-0.022-0.509-0.05-0.688-0.086l0.323,1.575c0.151,0.029,0.346,0.052,0.586,0.07c0.24,0.018,0.485,0.027,0.737,0.027
		c0.982,0,1.656-0.194,2.022-0.582c0.387,0.324,0.882,0.485,1.484,0.485h0.86h0.86h0c0.717,0,1.265-0.182,1.646-0.545
		c0.38-0.363,0.577-0.882,0.591-1.558l0.064-5.08L458.91-58.5L458.974-53.539z"/>
	<polygon style="clip-path:url(#SVGID_00000097471891061561425490000006583055233753848232_);fill:#FFFFFF;" points="
		469.407,-59.018 470.128,-58.295 471.064,-59.234 470.128,-60.172 469.407,-59.449 468.687,-60.172 467.751,-59.234 
		468.687,-58.295 	"/>
	<path style="clip-path:url(#SVGID_00000097471891061561425490000006583055233753848232_);fill:#FFFFFF;" d="M470.865-56.764
		c-0.333-0.633-0.816-0.949-1.447-0.949c-0.258,0-0.497,0.058-0.715,0.172c-0.219,0.115-0.411,0.273-0.576,0.475
		c-0.165,0.201-0.294,0.439-0.387,0.712c-0.093,0.273-0.14,0.565-0.14,0.874c0,0.546,0.145,0.974,0.436,1.283
		c0.29,0.309,0.69,0.464,1.199,0.464c0.416,0,0.767-0.111,1.054-0.334v0.636c0,0.058-0.047,0.106-0.14,0.146
		c-0.093,0.04-0.246,0.072-0.457,0.097c-0.212,0.025-0.489,0.045-0.833,0.059c-0.344,0.014-0.764,0.022-1.258,0.022h-0.355h-0.86
		h-0.86h-0.473c-0.014-0.424-0.066-0.818-0.156-1.181c-0.09-0.363-0.215-0.676-0.377-0.938c-0.161-0.262-0.357-0.469-0.586-0.62
		c-0.23-0.151-0.488-0.226-0.774-0.226c-0.28,0-0.538,0.059-0.774,0.178s-0.439,0.284-0.608,0.496
		c-0.168,0.212-0.299,0.462-0.393,0.749c-0.093,0.288-0.14,0.597-0.14,0.928c0,0.611,0.192,1.091,0.576,1.44
		c0.384,0.349,0.923,0.523,1.619,0.523h0.312c-0.387,0.568-1.233,0.895-2.538,0.982l0.549,1.381c0.753-0.058,1.393-0.275,1.92-0.653
		s0.905-0.879,1.135-1.505h0.71h0.86h0.86h0.355c0.373,0,0.697-0.004,0.973-0.011c0.276-0.007,0.518-0.022,0.726-0.043
		c0.208-0.022,0.389-0.05,0.543-0.086c0.154-0.036,0.296-0.083,0.425-0.14c0.394-0.165,0.676-0.415,0.844-0.75
		c0.169-0.334,0.253-0.807,0.253-1.418C471.365-55.21,471.198-56.131,470.865-56.764 M469.859-54.995
		c-0.151,0.036-0.312,0.054-0.484,0.054c-0.251,0-0.445-0.054-0.581-0.162c-0.136-0.108-0.204-0.259-0.204-0.453
		c0-0.23,0.073-0.419,0.22-0.566c0.147-0.147,0.335-0.221,0.565-0.221c0.237,0,0.425,0.094,0.565,0.28
		c0.14,0.187,0.238,0.485,0.296,0.895C470.135-55.088,470.009-55.031,469.859-54.995 M463.61-53.107
		c-0.409,0-0.733-0.047-0.973-0.14c-0.24-0.093-0.36-0.27-0.36-0.529c0-0.244,0.073-0.444,0.22-0.599
		c0.147-0.155,0.342-0.232,0.586-0.232c0.272,0,0.488,0.129,0.645,0.388c0.158,0.259,0.255,0.629,0.29,1.111H463.61z"/>
</g>
</svg>
