<?xml version="1.0" encoding="utf-8"?>
<!-- Generator: Adobe Illustrator 27.0.0, SVG Export Plug-In . SVG Version: 6.00 Build 0)  -->
<svg version="1.1" id="Layer_1" xmlns="http://www.w3.org/2000/svg" xmlns:xlink="http://www.w3.org/1999/xlink" x="0px" y="0px"
	 viewBox="0 0 91.474 156.92" style="enable-background:new 0 0 91.474 156.92;" xml:space="preserve">
<style type="text/css">
	.st0{clip-path:url(#SVGID_00000103979116968068349410000002860563740982793112_);fill:#CF2481;}
</style>
<g>
	<defs>
		<rect id="SVGID_1_" x="63.278" y="75.592" width="3.199" height="5.487"/>
	</defs>
	<clipPath id="SVGID_00000012451516051667612930000000940979915066002331_">
		<use xlink:href="#SVGID_1_"  style="overflow:visible;"/>
	</clipPath>
	<path style="clip-path:url(#SVGID_00000012451516051667612930000000940979915066002331_);fill:#CF2481;" d="M65.988,76.719
		c0.27,0,0.489,0.219,0.489,0.489s-0.219,0.489-0.489,0.489s-0.489-0.219-0.489-0.489S65.718,76.719,65.988,76.719"/>
	<path style="clip-path:url(#SVGID_00000012451516051667612930000000940979915066002331_);fill:#CF2481;" d="M65.988,75.592
		c0.27,0,0.489,0.219,0.489,0.489s-0.219,0.489-0.489,0.489s-0.489-0.219-0.489-0.489S65.718,75.592,65.988,75.592"/>
	<path style="clip-path:url(#SVGID_00000012451516051667612930000000940979915066002331_);fill:#CF2481;" d="M65.988,77.846
		c0.27,0,0.489,0.219,0.489,0.489c0,0.27-0.219,0.489-0.489,0.489c-0.27,0-0.489-0.219-0.489-0.489
		C65.499,78.065,65.718,77.846,65.988,77.846"/>
	<path style="clip-path:url(#SVGID_00000012451516051667612930000000940979915066002331_);fill:#CF2481;" d="M65.988,78.974
		c0.27,0,0.489,0.219,0.489,0.489s-0.219,0.489-0.489,0.489c-0.27,0-0.489-0.219-0.489-0.489S65.718,78.974,65.988,78.974"/>
	<path style="clip-path:url(#SVGID_00000012451516051667612930000000940979915066002331_);fill:#CF2481;" d="M64.877,76.719
		c0.27,0,0.489,0.219,0.489,0.489s-0.219,0.489-0.489,0.489s-0.489-0.219-0.489-0.489S64.607,76.719,64.877,76.719"/>
	<path style="clip-path:url(#SVGID_00000012451516051667612930000000940979915066002331_);fill:#CF2481;" d="M64.877,77.846
		c0.27,0,0.489,0.219,0.489,0.489c0,0.27-0.219,0.489-0.489,0.489c-0.27,0-0.489-0.219-0.489-0.489
		C64.389,78.065,64.607,77.846,64.877,77.846"/>
	<path style="clip-path:url(#SVGID_00000012451516051667612930000000940979915066002331_);fill:#CF2481;" d="M63.767,77.846
		c0.27,0,0.489,0.219,0.489,0.489c0,0.27-0.219,0.489-0.489,0.489s-0.489-0.219-0.489-0.489
		C63.278,78.065,63.497,77.846,63.767,77.846"/>
	<path style="clip-path:url(#SVGID_00000012451516051667612930000000940979915066002331_);fill:#CF2481;" d="M64.877,78.974
		c0.27,0,0.489,0.219,0.489,0.489s-0.219,0.489-0.489,0.489c-0.27,0-0.489-0.219-0.489-0.489S64.607,78.974,64.877,78.974"/>
	<path style="clip-path:url(#SVGID_00000012451516051667612930000000940979915066002331_);fill:#CF2481;" d="M65.988,80.101
		c0.27,0,0.489,0.219,0.489,0.489s-0.219,0.489-0.489,0.489s-0.489-0.219-0.489-0.489S65.718,80.101,65.988,80.101"/>
</g>
</svg>
